<svg id="svg" version="1.1" width="400" height="400" viewBox="0 0 400 400" xmlns="http://www.w3.org/2000/svg" xmlns:xlink="http://www.w3.org/1999/xlink" ><g id="svgg"><path id="path0" d="M97.500 200.000 L 97.500 262.667 115.917 262.667 L 134.333 262.667 134.333 245.583 L 134.333 228.500 144.542 228.500 C 158.398 228.499,162.422 228.138,168.917 226.313 C 189.550 220.514,201.258 204.799,201.247 182.917 C 201.235 156.452,184.929 139.230,158.250 137.502 C 156.793 137.408,143.599 137.339,126.625 137.337 L 97.500 137.333 97.500 200.000 M214.333 200.000 L 214.333 262.667 258.583 262.667 L 302.833 262.667 302.833 248.000 L 302.833 233.333 277.083 233.333 L 251.333 233.333 251.333 223.333 L 251.333 213.333 275.500 213.333 L 299.667 213.333 299.667 200.083 L 299.667 186.833 275.500 186.833 L 251.333 186.833 251.333 176.750 L 251.333 166.667 277.083 166.667 L 302.833 166.667 302.833 152.000 L 302.833 137.333 258.583 137.333 L 214.333 137.333 214.333 200.000 M150.833 165.709 C 160.142 167.985,164.449 173.961,164.123 184.147 C 163.857 192.455,159.963 197.920,152.706 200.169 C 149.893 201.041,148.192 201.205,141.042 201.291 L 134.333 201.372 134.333 183.256 L 134.333 165.140 141.708 165.210 C 148.941 165.280,149.117 165.289,150.833 165.709 " stroke="none" fill="#ffffff" fill-rule="evenodd"></path><path id="path1" d="M21.583 0.182 C 19.893 0.306,16.603 0.874,15.833 1.174 C 15.787 1.192,15.697 1.198,15.633 1.189 C 15.442 1.161,13.291 1.918,12.750 2.204 C 12.475 2.349,11.872 2.651,11.410 2.875 C 4.946 6.011,1.019 12.695,0.175 22.000 C -0.069 24.686,-0.069 375.314,0.175 378.000 C 1.019 387.305,4.946 393.989,11.410 397.125 C 11.872 397.349,12.475 397.651,12.750 397.796 C 13.291 398.082,15.442 398.839,15.633 398.811 C 15.697 398.802,15.787 398.808,15.833 398.826 C 16.682 399.157,19.809 399.671,21.917 399.825 C 25.168 400.064,374.832 400.064,378.083 399.825 C 380.191 399.671,383.318 399.157,384.167 398.826 C 384.212 398.808,384.303 398.802,384.367 398.811 C 384.558 398.839,386.709 398.082,387.250 397.796 C 387.525 397.651,388.128 397.349,388.590 397.125 C 395.054 393.989,398.981 387.305,399.825 378.000 C 400.069 375.314,400.069 24.686,399.825 22.000 C 398.981 12.695,395.054 6.011,388.590 2.875 C 388.128 2.651,387.525 2.349,387.250 2.204 C 386.709 1.918,384.558 1.161,384.367 1.189 C 384.303 1.198,384.212 1.192,384.167 1.174 C 383.318 0.843,380.191 0.329,378.083 0.175 C 375.258 -0.033,24.408 -0.025,21.583 0.182 M158.250 137.502 C 184.929 139.230,201.235 156.452,201.247 182.917 C 201.258 204.799,189.550 220.514,168.917 226.313 C 162.422 228.138,158.398 228.499,144.542 228.500 L 134.333 228.500 134.333 245.583 L 134.333 262.667 115.917 262.667 L 97.500 262.667 97.500 200.000 L 97.500 137.333 126.625 137.337 C 143.599 137.339,156.793 137.408,158.250 137.502 M302.833 152.000 L 302.833 166.667 277.083 166.667 L 251.333 166.667 251.333 176.750 L 251.333 186.833 275.500 186.833 L 299.667 186.833 299.667 200.083 L 299.667 213.333 275.500 213.333 L 251.333 213.333 251.333 223.333 L 251.333 233.333 277.083 233.333 L 302.833 233.333 302.833 248.000 L 302.833 262.667 258.583 262.667 L 214.333 262.667 214.333 200.000 L 214.333 137.333 258.583 137.333 L 302.833 137.333 302.833 152.000 M134.333 183.256 L 134.333 201.372 141.042 201.291 C 151.647 201.163,155.401 200.154,159.378 196.361 C 166.181 189.871,165.745 175.188,158.573 169.272 C 154.645 166.032,151.627 165.305,141.708 165.210 L 134.333 165.140 134.333 183.256 " stroke="none" fill="#722ed1" fill-rule="evenodd"></path></g></svg>